<svg width="72" height="74" viewBox="0 0 72 74" fill="none" xmlns="http://www.w3.org/2000/svg">
<g clip-path="url(#clip0)" filter="url(#filter0_d)">
<path d="M36.7875 29.5453C35.8 29.5453 34.9875 28.7203 34.9875 27.6891V6.63867C35 3.32578 37.775 0.644531 41.2 0.644531C44.625 0.644531 47.4 3.33867 47.4 6.65156C47.4 7.66992 46.6 8.50781 45.6 8.50781C44.6 8.50781 43.8 7.68281 43.8 6.65156C43.8 5.38828 42.625 4.35703 41.1875 4.35703C39.75 4.35703 38.575 5.38828 38.575 6.65156V27.702C38.5875 28.7074 37.7875 29.5453 36.7875 29.5453Z" fill="#F0BF5F"/>
<path d="M57.3875 34.9078C56.4 34.9078 55.5875 34.0828 55.5875 33.0516V6.63867C55.6 3.32578 58.375 0.644531 61.8 0.644531C65.225 0.644531 68 3.32578 68 6.63867C68 7.65703 67.2 8.49492 66.2 8.49492C65.2125 8.49492 64.4 7.66992 64.4 6.63867C64.4 5.37539 63.225 4.34414 61.7875 4.34414C60.35 4.34414 59.175 5.37539 59.175 6.63867V33.0516C59.1875 34.0699 58.3875 34.9078 57.3875 34.9078Z" fill="#F0BF5F"/>
<path d="M46.5008 16.1133H36.8008C35.8133 16.1133 35.0008 15.2883 35.0008 14.257C35.0008 13.2258 35.8008 12.4008 36.8008 12.4008H46.5008C47.4883 12.4008 48.3008 13.2258 48.3008 14.257C48.3008 15.2883 47.4883 16.1133 46.5008 16.1133Z" fill="#F0BF5F"/>
<path d="M46.5008 29.5453H36.8008C35.8133 29.5453 35.0008 28.7203 35.0008 27.6891C35.0008 26.6578 35.8008 25.8328 36.8008 25.8328H46.5008C47.4883 25.8328 48.3008 26.6578 48.3008 27.6891C48.2883 28.7074 47.4883 29.5453 46.5008 29.5453Z" fill="#F0BF5F"/>
<path d="M57.3875 22.8293H47.6875C46.7 22.8293 45.8875 22.0043 45.8875 20.9731C45.8875 19.9418 46.6875 19.1168 47.6875 19.1168H57.3875C58.375 19.1168 59.1875 19.9418 59.1875 20.9731C59.1875 22.0043 58.3875 22.8293 57.3875 22.8293Z" fill="#F0BF5F"/>
<path d="M62.9625 48.3527C62.9625 50.5699 60.4 52.3617 57.225 52.3617C54.0625 52.3617 51.4875 50.5699 51.4875 48.3527C51.4875 50.5699 48.925 52.3617 45.75 52.3617C42.5875 52.3617 40.0125 50.5699 40.0125 48.3527H40.1C40.1 50.5699 37.5375 52.3617 34.3625 52.3617C31.1875 52.3617 28.625 50.5699 28.625 48.3527C28.625 50.5699 26.0625 52.3617 22.8875 52.3617C19.7125 52.3617 17.15 50.5699 17.15 48.3527H17.2375C17.2375 50.5699 14.675 52.3617 11.5 52.3617C8.32498 52.3617 5.76248 50.5699 5.76248 48.3527V37.009C5.76248 39.2262 8.32498 41.018 11.5 41.018C14.675 41.018 17.2375 39.2262 17.2375 37.009H17.15C17.15 39.2262 19.7125 41.018 22.8875 41.018C26.0625 41.018 28.625 39.2262 28.625 37.009C28.625 39.2262 31.1875 41.018 34.3625 41.018C37.5375 41.018 40.1 39.2262 40.1 37.009H40.0125C40.0125 39.2262 42.575 41.018 45.75 41.018C48.925 41.018 51.4875 39.2262 51.4875 37.009C51.4875 39.2262 54.05 41.018 57.225 41.018C60.4 41.018 62.9625 39.2262 62.9625 37.009V48.3527Z" fill="#CEE8FA"/>
<path d="M57.225 54.218C54.9 54.218 52.8625 53.4445 51.4875 52.1941C50.1125 53.4445 48.075 54.218 45.75 54.218C43.475 54.218 41.4375 53.4574 40.0625 52.2328C38.6875 53.4574 36.65 54.218 34.375 54.218C32.05 54.218 30.0125 53.4445 28.6375 52.1941C27.2625 53.4445 25.225 54.218 22.9 54.218C20.625 54.218 18.5875 53.4574 17.2125 52.2328C15.8375 53.4703 13.8 54.218 11.525 54.218C7.3 54.218 4 51.6398 4 48.3527V37.009C4 35.9906 4.8 35.1527 5.8 35.1527C6.8 35.1527 7.6 35.9777 7.6 37.009C7.6 38.0016 9.325 39.1617 11.5375 39.1617C13.5375 39.1617 15.075 38.2723 15.4125 37.3699C15.4 37.2539 15.4 37.125 15.4 37.009C15.4 35.9906 16.2 35.1527 17.2 35.1527H17.2875C18.275 35.1527 19.0875 35.9777 19.0875 37.009C19.0875 37.125 19.0875 37.2539 19.075 37.3699C19.4125 38.2723 20.95 39.1617 22.95 39.1617C25.1625 39.1617 26.8875 38.0016 26.8875 37.009C26.8875 35.9906 27.6875 35.1527 28.6875 35.1527C29.6875 35.1527 30.4875 35.9777 30.4875 37.009C30.4875 38.0016 32.2125 39.1617 34.425 39.1617C36.425 39.1617 37.9625 38.2723 38.3 37.3699C38.2875 37.2539 38.2875 37.125 38.2875 37.009C38.2875 35.9906 39.0875 35.1527 40.0875 35.1527H40.175C41.1625 35.1527 41.975 35.9777 41.975 37.009C41.975 37.125 41.975 37.2539 41.9625 37.3699C42.3 38.2723 43.8375 39.1617 45.8375 39.1617C48.05 39.1617 49.775 38.0016 49.775 37.009C49.775 35.9906 50.575 35.1527 51.575 35.1527C52.5625 35.1527 53.375 35.9777 53.375 37.009C53.375 38.0016 55.1 39.1617 57.3125 39.1617C59.525 39.1617 61.25 38.0016 61.25 37.009C61.25 35.9906 62.05 35.1527 63.05 35.1527C64.05 35.1527 64.85 35.9777 64.85 37.009V48.3527C64.7625 51.6398 61.45 54.218 57.225 54.218ZM53.2875 48.3527C53.2875 49.3453 55.0125 50.5055 57.225 50.5055C59.4375 50.5055 61.1625 49.3453 61.1625 48.3527V42.0234C60.025 42.552 58.675 42.8613 57.225 42.8613C54.9 42.8613 52.8625 42.0879 51.4875 40.8375C50.1125 42.0879 48.075 42.8613 45.75 42.8613C43.475 42.8613 41.4375 42.1008 40.0625 40.8762C38.6875 42.1137 36.65 42.8613 34.375 42.8613C32.05 42.8613 30.0125 42.0879 28.6375 40.8375C27.2625 42.0879 25.225 42.8613 22.9 42.8613C20.625 42.8613 18.5875 42.1008 17.2125 40.8762C15.8375 42.1137 13.8 42.8613 11.525 42.8613C10.075 42.8613 8.725 42.552 7.5875 42.0234V48.3527C7.5875 49.3453 9.3125 50.5055 11.525 50.5055C13.525 50.5055 15.0625 49.616 15.4 48.7137C15.3875 48.5977 15.3875 48.4688 15.3875 48.3527C15.3875 47.3344 16.1875 46.4965 17.1875 46.4965H17.275C18.2625 46.4965 19.075 47.3215 19.075 48.3527C19.075 48.4688 19.075 48.5977 19.0625 48.7137C19.4 49.616 20.9375 50.5055 22.9375 50.5055C25.15 50.5055 26.875 49.3453 26.875 48.3527C26.875 47.3344 27.675 46.4965 28.675 46.4965C29.675 46.4965 30.475 47.3215 30.475 48.3527C30.475 49.3453 32.2 50.5055 34.4125 50.5055C36.4125 50.5055 37.95 49.616 38.2875 48.7137C38.275 48.5977 38.275 48.4688 38.275 48.3527C38.275 47.3344 39.075 46.4965 40.075 46.4965H40.1625C41.15 46.4965 41.9625 47.3215 41.9625 48.3527C41.9625 48.4688 41.9625 48.5977 41.95 48.7137C42.2875 49.616 43.825 50.5055 45.825 50.5055C48.0375 50.5055 49.7625 49.3453 49.7625 48.3527C49.7625 47.3344 50.5625 46.4965 51.5625 46.4965C52.4875 46.5094 53.2875 47.3344 53.2875 48.3527Z" fill="#2D527C"/>
<path d="M45.7625 65.3555C43.4625 65.3555 41.4375 64.595 40.075 63.3704C38.7 64.595 36.675 65.3555 34.3875 65.3555C32.0625 65.3555 30.025 64.5821 28.65 63.3317C27.275 64.5821 25.2375 65.3555 22.9125 65.3555C18.6875 65.3555 15.3875 62.7774 15.3875 59.4903C15.3875 58.4719 16.1875 57.634 17.1875 57.634H17.275C18.2625 57.634 19.075 58.459 19.075 59.4903C19.075 59.5934 19.0625 59.7094 19.05 59.8125C19.3625 60.7278 20.95 61.6559 22.9375 61.6559C25.15 61.6559 26.875 60.4958 26.875 59.5032C26.875 58.4848 27.675 57.6469 28.675 57.6469C29.675 57.6469 30.475 58.4719 30.475 59.5032C30.475 60.4958 32.2 61.6559 34.4125 61.6559C36.375 61.6559 37.9375 60.7536 38.275 59.8512C38.2625 59.7352 38.2625 59.6192 38.2625 59.4903C38.2625 58.4719 39.0625 57.634 40.0625 57.634H40.15C41.1375 57.634 41.95 58.459 41.95 59.4903C41.95 59.6063 41.95 59.7223 41.9375 59.8512C42.275 60.7536 43.85 61.6559 45.8 61.6559C48.0125 61.6559 49.7375 60.4958 49.7375 59.5032C49.7375 58.4848 50.5375 57.6469 51.5375 57.6469C52.525 57.6469 53.3375 58.4719 53.3375 59.5032C53.2875 62.7903 49.9875 65.3555 45.7625 65.3555Z" fill="#2D527C"/>
</g>
<defs>
<filter id="filter0_d" x="0" y="0" width="72" height="74" filterUnits="userSpaceOnUse" color-interpolation-filters="sRGB">
<feFlood flood-opacity="0" result="BackgroundImageFix"/>
<feColorMatrix in="SourceAlpha" type="matrix" values="0 0 0 0 0 0 0 0 0 0 0 0 0 0 0 0 0 0 127 0" result="hardAlpha"/>
<feOffset dy="4"/>
<feGaussianBlur stdDeviation="2"/>
<feComposite in2="hardAlpha" operator="out"/>
<feColorMatrix type="matrix" values="0 0 0 0 0 0 0 0 0 0 0 0 0 0 0 0 0 0 0.25 0"/>
<feBlend mode="normal" in2="BackgroundImageFix" result="effect1_dropShadow"/>
<feBlend mode="normal" in="SourceGraphic" in2="effect1_dropShadow" result="shape"/>
</filter>
<clipPath id="clip0">
<rect width="64" height="66" fill="white" transform="translate(4)"/>
</clipPath>
</defs>
</svg>
